<mxfile host="Electron" modified="2024-03-01T12:33:05.854Z" agent="Mozilla/5.0 (Windows NT 10.0; Win64; x64) AppleWebKit/537.36 (KHTML, like Gecko) draw.io/22.1.18 Chrome/120.0.6099.199 Electron/28.1.2 Safari/537.36" etag="E5UOXbj6FJi53yyYe0BT" version="22.1.18" type="device">
  <diagram name="Page-1" id="-5k9ssh1PsKzDlXD9x-G">
    <mxGraphModel dx="784" dy="911" grid="1" gridSize="10" guides="1" tooltips="1" connect="1" arrows="1" fold="1" page="1" pageScale="1" pageWidth="850" pageHeight="1100" math="0" shadow="0">
      <root>
        <mxCell id="0" />
        <mxCell id="1" parent="0" />
        <mxCell id="OWrJz08ZFz05rzJFqo_H-8" style="rounded=0;orthogonalLoop=1;jettySize=auto;html=1;exitX=1;exitY=1;exitDx=0;exitDy=0;endArrow=none;endFill=0;" parent="1" source="OWrJz08ZFz05rzJFqo_H-1" target="OWrJz08ZFz05rzJFqo_H-5" edge="1">
          <mxGeometry relative="1" as="geometry" />
        </mxCell>
        <mxCell id="OWrJz08ZFz05rzJFqo_H-9" style="edgeStyle=orthogonalEdgeStyle;rounded=0;orthogonalLoop=1;jettySize=auto;html=1;exitX=1;exitY=0.5;exitDx=0;exitDy=0;entryX=0;entryY=0.5;entryDx=0;entryDy=0;endArrow=none;endFill=0;" parent="1" source="OWrJz08ZFz05rzJFqo_H-1" target="OWrJz08ZFz05rzJFqo_H-2" edge="1">
          <mxGeometry relative="1" as="geometry" />
        </mxCell>
        <mxCell id="OWrJz08ZFz05rzJFqo_H-12" style="edgeStyle=orthogonalEdgeStyle;rounded=0;orthogonalLoop=1;jettySize=auto;html=1;exitX=0.5;exitY=1;exitDx=0;exitDy=0;entryX=0.5;entryY=0;entryDx=0;entryDy=0;endArrow=none;endFill=0;" parent="1" source="OWrJz08ZFz05rzJFqo_H-1" target="OWrJz08ZFz05rzJFqo_H-4" edge="1">
          <mxGeometry relative="1" as="geometry" />
        </mxCell>
        <mxCell id="OWrJz08ZFz05rzJFqo_H-1" value="&lt;font style=&quot;font-size: 24px;&quot;&gt;&lt;b&gt;A&lt;/b&gt;&lt;/font&gt;" style="ellipse;whiteSpace=wrap;html=1;aspect=fixed;" parent="1" vertex="1">
          <mxGeometry x="40" y="40" width="50" height="50" as="geometry" />
        </mxCell>
        <mxCell id="OWrJz08ZFz05rzJFqo_H-10" style="rounded=0;orthogonalLoop=1;jettySize=auto;html=1;exitX=1;exitY=0.5;exitDx=0;exitDy=0;entryX=0.5;entryY=0;entryDx=0;entryDy=0;endArrow=none;endFill=0;" parent="1" source="OWrJz08ZFz05rzJFqo_H-2" target="OWrJz08ZFz05rzJFqo_H-6" edge="1">
          <mxGeometry relative="1" as="geometry" />
        </mxCell>
        <mxCell id="OWrJz08ZFz05rzJFqo_H-2" value="&lt;font style=&quot;font-size: 24px;&quot;&gt;&lt;b&gt;B&lt;/b&gt;&lt;/font&gt;" style="ellipse;whiteSpace=wrap;html=1;aspect=fixed;" parent="1" vertex="1">
          <mxGeometry x="210" y="40" width="50" height="50" as="geometry" />
        </mxCell>
        <mxCell id="OWrJz08ZFz05rzJFqo_H-13" style="edgeStyle=orthogonalEdgeStyle;rounded=0;orthogonalLoop=1;jettySize=auto;html=1;exitX=1;exitY=0.5;exitDx=0;exitDy=0;entryX=0;entryY=0.5;entryDx=0;entryDy=0;endArrow=none;endFill=0;" parent="1" source="OWrJz08ZFz05rzJFqo_H-4" target="OWrJz08ZFz05rzJFqo_H-5" edge="1">
          <mxGeometry relative="1" as="geometry" />
        </mxCell>
        <mxCell id="OWrJz08ZFz05rzJFqo_H-4" value="&lt;font style=&quot;font-size: 24px;&quot;&gt;&lt;b&gt;C&lt;/b&gt;&lt;/font&gt;" style="ellipse;whiteSpace=wrap;html=1;aspect=fixed;" parent="1" vertex="1">
          <mxGeometry x="40" y="240" width="50" height="50" as="geometry" />
        </mxCell>
        <mxCell id="OWrJz08ZFz05rzJFqo_H-11" style="rounded=0;orthogonalLoop=1;jettySize=auto;html=1;exitX=1;exitY=0.5;exitDx=0;exitDy=0;entryX=0.5;entryY=1;entryDx=0;entryDy=0;endArrow=none;endFill=0;" parent="1" source="OWrJz08ZFz05rzJFqo_H-5" target="OWrJz08ZFz05rzJFqo_H-6" edge="1">
          <mxGeometry relative="1" as="geometry" />
        </mxCell>
        <mxCell id="OWrJz08ZFz05rzJFqo_H-5" value="&lt;font style=&quot;font-size: 24px;&quot;&gt;&lt;b&gt;D&lt;/b&gt;&lt;/font&gt;" style="ellipse;whiteSpace=wrap;html=1;aspect=fixed;" parent="1" vertex="1">
          <mxGeometry x="210" y="240" width="50" height="50" as="geometry" />
        </mxCell>
        <mxCell id="OWrJz08ZFz05rzJFqo_H-6" value="&lt;font style=&quot;font-size: 24px;&quot;&gt;&lt;b&gt;E&lt;/b&gt;&lt;/font&gt;" style="ellipse;whiteSpace=wrap;html=1;aspect=fixed;" parent="1" vertex="1">
          <mxGeometry x="400" y="150" width="50" height="50" as="geometry" />
        </mxCell>
        <mxCell id="OWrJz08ZFz05rzJFqo_H-46" value="" style="childLayout=tableLayout;recursiveResize=0;shadow=0;fillColor=none;" parent="1" vertex="1">
          <mxGeometry x="361" y="430" width="360" height="280" as="geometry" />
        </mxCell>
        <mxCell id="OWrJz08ZFz05rzJFqo_H-82" style="shape=tableRow;horizontal=0;startSize=0;swimlaneHead=0;swimlaneBody=0;top=0;left=0;bottom=0;right=0;dropTarget=0;collapsible=0;recursiveResize=0;expand=0;fontStyle=0;fillColor=none;strokeColor=inherit;" parent="OWrJz08ZFz05rzJFqo_H-46" vertex="1">
          <mxGeometry width="360" height="47" as="geometry" />
        </mxCell>
        <mxCell id="OWrJz08ZFz05rzJFqo_H-83" value="" style="connectable=0;recursiveResize=0;strokeColor=inherit;fillColor=none;align=center;whiteSpace=wrap;html=1;" parent="OWrJz08ZFz05rzJFqo_H-82" vertex="1">
          <mxGeometry width="60" height="47" as="geometry">
            <mxRectangle width="60" height="47" as="alternateBounds" />
          </mxGeometry>
        </mxCell>
        <mxCell id="OWrJz08ZFz05rzJFqo_H-84" value="A" style="connectable=0;recursiveResize=0;strokeColor=inherit;fillColor=none;align=center;whiteSpace=wrap;html=1;" parent="OWrJz08ZFz05rzJFqo_H-82" vertex="1">
          <mxGeometry x="60" width="60" height="47" as="geometry">
            <mxRectangle width="60" height="47" as="alternateBounds" />
          </mxGeometry>
        </mxCell>
        <mxCell id="OWrJz08ZFz05rzJFqo_H-85" value="B" style="connectable=0;recursiveResize=0;strokeColor=inherit;fillColor=none;align=center;whiteSpace=wrap;html=1;" parent="OWrJz08ZFz05rzJFqo_H-82" vertex="1">
          <mxGeometry x="120" width="60" height="47" as="geometry">
            <mxRectangle width="60" height="47" as="alternateBounds" />
          </mxGeometry>
        </mxCell>
        <mxCell id="OWrJz08ZFz05rzJFqo_H-89" value="C" style="connectable=0;recursiveResize=0;strokeColor=inherit;fillColor=none;align=center;whiteSpace=wrap;html=1;" parent="OWrJz08ZFz05rzJFqo_H-82" vertex="1">
          <mxGeometry x="180" width="60" height="47" as="geometry">
            <mxRectangle width="60" height="47" as="alternateBounds" />
          </mxGeometry>
        </mxCell>
        <mxCell id="OWrJz08ZFz05rzJFqo_H-86" value="D" style="connectable=0;recursiveResize=0;strokeColor=inherit;fillColor=none;align=center;whiteSpace=wrap;html=1;" parent="OWrJz08ZFz05rzJFqo_H-82" vertex="1">
          <mxGeometry x="240" width="60" height="47" as="geometry">
            <mxRectangle width="60" height="47" as="alternateBounds" />
          </mxGeometry>
        </mxCell>
        <mxCell id="OWrJz08ZFz05rzJFqo_H-87" value="E" style="connectable=0;recursiveResize=0;strokeColor=inherit;fillColor=none;align=center;whiteSpace=wrap;html=1;" parent="OWrJz08ZFz05rzJFqo_H-82" vertex="1">
          <mxGeometry x="300" width="60" height="47" as="geometry">
            <mxRectangle width="60" height="47" as="alternateBounds" />
          </mxGeometry>
        </mxCell>
        <mxCell id="OWrJz08ZFz05rzJFqo_H-75" style="shape=tableRow;horizontal=0;startSize=0;swimlaneHead=0;swimlaneBody=0;top=0;left=0;bottom=0;right=0;dropTarget=0;collapsible=0;recursiveResize=0;expand=0;fontStyle=0;fillColor=none;strokeColor=inherit;" parent="OWrJz08ZFz05rzJFqo_H-46" vertex="1">
          <mxGeometry y="47" width="360" height="47" as="geometry" />
        </mxCell>
        <mxCell id="OWrJz08ZFz05rzJFqo_H-76" value="A" style="connectable=0;recursiveResize=0;strokeColor=inherit;fillColor=none;align=center;whiteSpace=wrap;html=1;" parent="OWrJz08ZFz05rzJFqo_H-75" vertex="1">
          <mxGeometry width="60" height="47" as="geometry">
            <mxRectangle width="60" height="47" as="alternateBounds" />
          </mxGeometry>
        </mxCell>
        <mxCell id="OWrJz08ZFz05rzJFqo_H-77" value="0" style="connectable=0;recursiveResize=0;strokeColor=inherit;fillColor=none;align=center;whiteSpace=wrap;html=1;" parent="OWrJz08ZFz05rzJFqo_H-75" vertex="1">
          <mxGeometry x="60" width="60" height="47" as="geometry">
            <mxRectangle width="60" height="47" as="alternateBounds" />
          </mxGeometry>
        </mxCell>
        <mxCell id="OWrJz08ZFz05rzJFqo_H-78" value="1" style="connectable=0;recursiveResize=0;strokeColor=inherit;fillColor=none;align=center;whiteSpace=wrap;html=1;" parent="OWrJz08ZFz05rzJFqo_H-75" vertex="1">
          <mxGeometry x="120" width="60" height="47" as="geometry">
            <mxRectangle width="60" height="47" as="alternateBounds" />
          </mxGeometry>
        </mxCell>
        <mxCell id="OWrJz08ZFz05rzJFqo_H-90" value="1" style="connectable=0;recursiveResize=0;strokeColor=inherit;fillColor=none;align=center;whiteSpace=wrap;html=1;" parent="OWrJz08ZFz05rzJFqo_H-75" vertex="1">
          <mxGeometry x="180" width="60" height="47" as="geometry">
            <mxRectangle width="60" height="47" as="alternateBounds" />
          </mxGeometry>
        </mxCell>
        <mxCell id="OWrJz08ZFz05rzJFqo_H-79" value="1" style="connectable=0;recursiveResize=0;strokeColor=inherit;fillColor=none;align=center;whiteSpace=wrap;html=1;" parent="OWrJz08ZFz05rzJFqo_H-75" vertex="1">
          <mxGeometry x="240" width="60" height="47" as="geometry">
            <mxRectangle width="60" height="47" as="alternateBounds" />
          </mxGeometry>
        </mxCell>
        <mxCell id="OWrJz08ZFz05rzJFqo_H-80" value="0" style="connectable=0;recursiveResize=0;strokeColor=inherit;fillColor=none;align=center;whiteSpace=wrap;html=1;" parent="OWrJz08ZFz05rzJFqo_H-75" vertex="1">
          <mxGeometry x="300" width="60" height="47" as="geometry">
            <mxRectangle width="60" height="47" as="alternateBounds" />
          </mxGeometry>
        </mxCell>
        <mxCell id="OWrJz08ZFz05rzJFqo_H-68" style="shape=tableRow;horizontal=0;startSize=0;swimlaneHead=0;swimlaneBody=0;top=0;left=0;bottom=0;right=0;dropTarget=0;collapsible=0;recursiveResize=0;expand=0;fontStyle=0;fillColor=none;strokeColor=inherit;" parent="OWrJz08ZFz05rzJFqo_H-46" vertex="1">
          <mxGeometry y="94" width="360" height="47" as="geometry" />
        </mxCell>
        <mxCell id="OWrJz08ZFz05rzJFqo_H-69" value="B" style="connectable=0;recursiveResize=0;strokeColor=inherit;fillColor=none;align=center;whiteSpace=wrap;html=1;" parent="OWrJz08ZFz05rzJFqo_H-68" vertex="1">
          <mxGeometry width="60" height="47" as="geometry">
            <mxRectangle width="60" height="47" as="alternateBounds" />
          </mxGeometry>
        </mxCell>
        <mxCell id="OWrJz08ZFz05rzJFqo_H-70" value="1" style="connectable=0;recursiveResize=0;strokeColor=inherit;fillColor=none;align=center;whiteSpace=wrap;html=1;" parent="OWrJz08ZFz05rzJFqo_H-68" vertex="1">
          <mxGeometry x="60" width="60" height="47" as="geometry">
            <mxRectangle width="60" height="47" as="alternateBounds" />
          </mxGeometry>
        </mxCell>
        <mxCell id="OWrJz08ZFz05rzJFqo_H-71" value="0" style="connectable=0;recursiveResize=0;strokeColor=inherit;fillColor=none;align=center;whiteSpace=wrap;html=1;" parent="OWrJz08ZFz05rzJFqo_H-68" vertex="1">
          <mxGeometry x="120" width="60" height="47" as="geometry">
            <mxRectangle width="60" height="47" as="alternateBounds" />
          </mxGeometry>
        </mxCell>
        <mxCell id="OWrJz08ZFz05rzJFqo_H-91" value="0" style="connectable=0;recursiveResize=0;strokeColor=inherit;fillColor=none;align=center;whiteSpace=wrap;html=1;" parent="OWrJz08ZFz05rzJFqo_H-68" vertex="1">
          <mxGeometry x="180" width="60" height="47" as="geometry">
            <mxRectangle width="60" height="47" as="alternateBounds" />
          </mxGeometry>
        </mxCell>
        <mxCell id="OWrJz08ZFz05rzJFqo_H-72" value="0" style="connectable=0;recursiveResize=0;strokeColor=inherit;fillColor=none;align=center;whiteSpace=wrap;html=1;" parent="OWrJz08ZFz05rzJFqo_H-68" vertex="1">
          <mxGeometry x="240" width="60" height="47" as="geometry">
            <mxRectangle width="60" height="47" as="alternateBounds" />
          </mxGeometry>
        </mxCell>
        <mxCell id="OWrJz08ZFz05rzJFqo_H-73" value="1" style="connectable=0;recursiveResize=0;strokeColor=inherit;fillColor=none;align=center;whiteSpace=wrap;html=1;" parent="OWrJz08ZFz05rzJFqo_H-68" vertex="1">
          <mxGeometry x="300" width="60" height="47" as="geometry">
            <mxRectangle width="60" height="47" as="alternateBounds" />
          </mxGeometry>
        </mxCell>
        <mxCell id="OWrJz08ZFz05rzJFqo_H-47" value="" style="shape=tableRow;horizontal=0;startSize=0;swimlaneHead=0;swimlaneBody=0;top=0;left=0;bottom=0;right=0;dropTarget=0;collapsible=0;recursiveResize=0;expand=0;fontStyle=0;fillColor=none;strokeColor=inherit;" parent="OWrJz08ZFz05rzJFqo_H-46" vertex="1">
          <mxGeometry y="141" width="360" height="47" as="geometry" />
        </mxCell>
        <mxCell id="OWrJz08ZFz05rzJFqo_H-65" value="C" style="connectable=0;recursiveResize=0;strokeColor=inherit;fillColor=none;align=center;whiteSpace=wrap;html=1;" parent="OWrJz08ZFz05rzJFqo_H-47" vertex="1">
          <mxGeometry width="60" height="47" as="geometry">
            <mxRectangle width="60" height="47" as="alternateBounds" />
          </mxGeometry>
        </mxCell>
        <mxCell id="OWrJz08ZFz05rzJFqo_H-62" value="1" style="connectable=0;recursiveResize=0;strokeColor=inherit;fillColor=none;align=center;whiteSpace=wrap;html=1;" parent="OWrJz08ZFz05rzJFqo_H-47" vertex="1">
          <mxGeometry x="60" width="60" height="47" as="geometry">
            <mxRectangle width="60" height="47" as="alternateBounds" />
          </mxGeometry>
        </mxCell>
        <mxCell id="OWrJz08ZFz05rzJFqo_H-59" value="0" style="connectable=0;recursiveResize=0;strokeColor=inherit;fillColor=none;align=center;whiteSpace=wrap;html=1;" parent="OWrJz08ZFz05rzJFqo_H-47" vertex="1">
          <mxGeometry x="120" width="60" height="47" as="geometry">
            <mxRectangle width="60" height="47" as="alternateBounds" />
          </mxGeometry>
        </mxCell>
        <mxCell id="OWrJz08ZFz05rzJFqo_H-92" value="0" style="connectable=0;recursiveResize=0;strokeColor=inherit;fillColor=none;align=center;whiteSpace=wrap;html=1;" parent="OWrJz08ZFz05rzJFqo_H-47" vertex="1">
          <mxGeometry x="180" width="60" height="47" as="geometry">
            <mxRectangle width="60" height="47" as="alternateBounds" />
          </mxGeometry>
        </mxCell>
        <mxCell id="OWrJz08ZFz05rzJFqo_H-48" value="1" style="connectable=0;recursiveResize=0;strokeColor=inherit;fillColor=none;align=center;whiteSpace=wrap;html=1;" parent="OWrJz08ZFz05rzJFqo_H-47" vertex="1">
          <mxGeometry x="240" width="60" height="47" as="geometry">
            <mxRectangle width="60" height="47" as="alternateBounds" />
          </mxGeometry>
        </mxCell>
        <mxCell id="OWrJz08ZFz05rzJFqo_H-49" value="0" style="connectable=0;recursiveResize=0;strokeColor=inherit;fillColor=none;align=center;whiteSpace=wrap;html=1;" parent="OWrJz08ZFz05rzJFqo_H-47" vertex="1">
          <mxGeometry x="300" width="60" height="47" as="geometry">
            <mxRectangle width="60" height="47" as="alternateBounds" />
          </mxGeometry>
        </mxCell>
        <mxCell id="OWrJz08ZFz05rzJFqo_H-51" style="shape=tableRow;horizontal=0;startSize=0;swimlaneHead=0;swimlaneBody=0;top=0;left=0;bottom=0;right=0;dropTarget=0;collapsible=0;recursiveResize=0;expand=0;fontStyle=0;fillColor=none;strokeColor=inherit;" parent="OWrJz08ZFz05rzJFqo_H-46" vertex="1">
          <mxGeometry y="188" width="360" height="46" as="geometry" />
        </mxCell>
        <mxCell id="OWrJz08ZFz05rzJFqo_H-66" value="D" style="connectable=0;recursiveResize=0;strokeColor=inherit;fillColor=none;align=center;whiteSpace=wrap;html=1;" parent="OWrJz08ZFz05rzJFqo_H-51" vertex="1">
          <mxGeometry width="60" height="46" as="geometry">
            <mxRectangle width="60" height="46" as="alternateBounds" />
          </mxGeometry>
        </mxCell>
        <mxCell id="OWrJz08ZFz05rzJFqo_H-63" value="1" style="connectable=0;recursiveResize=0;strokeColor=inherit;fillColor=none;align=center;whiteSpace=wrap;html=1;" parent="OWrJz08ZFz05rzJFqo_H-51" vertex="1">
          <mxGeometry x="60" width="60" height="46" as="geometry">
            <mxRectangle width="60" height="46" as="alternateBounds" />
          </mxGeometry>
        </mxCell>
        <mxCell id="OWrJz08ZFz05rzJFqo_H-60" value="0" style="connectable=0;recursiveResize=0;strokeColor=inherit;fillColor=none;align=center;whiteSpace=wrap;html=1;" parent="OWrJz08ZFz05rzJFqo_H-51" vertex="1">
          <mxGeometry x="120" width="60" height="46" as="geometry">
            <mxRectangle width="60" height="46" as="alternateBounds" />
          </mxGeometry>
        </mxCell>
        <mxCell id="OWrJz08ZFz05rzJFqo_H-93" value="1" style="connectable=0;recursiveResize=0;strokeColor=inherit;fillColor=none;align=center;whiteSpace=wrap;html=1;" parent="OWrJz08ZFz05rzJFqo_H-51" vertex="1">
          <mxGeometry x="180" width="60" height="46" as="geometry">
            <mxRectangle width="60" height="46" as="alternateBounds" />
          </mxGeometry>
        </mxCell>
        <mxCell id="OWrJz08ZFz05rzJFqo_H-52" value="0" style="connectable=0;recursiveResize=0;strokeColor=inherit;fillColor=none;align=center;whiteSpace=wrap;html=1;" parent="OWrJz08ZFz05rzJFqo_H-51" vertex="1">
          <mxGeometry x="240" width="60" height="46" as="geometry">
            <mxRectangle width="60" height="46" as="alternateBounds" />
          </mxGeometry>
        </mxCell>
        <mxCell id="OWrJz08ZFz05rzJFqo_H-53" value="1" style="connectable=0;recursiveResize=0;strokeColor=inherit;fillColor=none;align=center;whiteSpace=wrap;html=1;" parent="OWrJz08ZFz05rzJFqo_H-51" vertex="1">
          <mxGeometry x="300" width="60" height="46" as="geometry">
            <mxRectangle width="60" height="46" as="alternateBounds" />
          </mxGeometry>
        </mxCell>
        <mxCell id="OWrJz08ZFz05rzJFqo_H-94" style="shape=tableRow;horizontal=0;startSize=0;swimlaneHead=0;swimlaneBody=0;top=0;left=0;bottom=0;right=0;dropTarget=0;collapsible=0;recursiveResize=0;expand=0;fontStyle=0;fillColor=none;strokeColor=inherit;" parent="OWrJz08ZFz05rzJFqo_H-46" vertex="1">
          <mxGeometry y="234" width="360" height="46" as="geometry" />
        </mxCell>
        <mxCell id="OWrJz08ZFz05rzJFqo_H-95" value="E" style="connectable=0;recursiveResize=0;strokeColor=inherit;fillColor=none;align=center;whiteSpace=wrap;html=1;" parent="OWrJz08ZFz05rzJFqo_H-94" vertex="1">
          <mxGeometry width="60" height="46" as="geometry">
            <mxRectangle width="60" height="46" as="alternateBounds" />
          </mxGeometry>
        </mxCell>
        <mxCell id="OWrJz08ZFz05rzJFqo_H-96" value="0" style="connectable=0;recursiveResize=0;strokeColor=inherit;fillColor=none;align=center;whiteSpace=wrap;html=1;" parent="OWrJz08ZFz05rzJFqo_H-94" vertex="1">
          <mxGeometry x="60" width="60" height="46" as="geometry">
            <mxRectangle width="60" height="46" as="alternateBounds" />
          </mxGeometry>
        </mxCell>
        <mxCell id="OWrJz08ZFz05rzJFqo_H-97" value="1" style="connectable=0;recursiveResize=0;strokeColor=inherit;fillColor=none;align=center;whiteSpace=wrap;html=1;" parent="OWrJz08ZFz05rzJFqo_H-94" vertex="1">
          <mxGeometry x="120" width="60" height="46" as="geometry">
            <mxRectangle width="60" height="46" as="alternateBounds" />
          </mxGeometry>
        </mxCell>
        <mxCell id="OWrJz08ZFz05rzJFqo_H-98" value="0" style="connectable=0;recursiveResize=0;strokeColor=inherit;fillColor=none;align=center;whiteSpace=wrap;html=1;" parent="OWrJz08ZFz05rzJFqo_H-94" vertex="1">
          <mxGeometry x="180" width="60" height="46" as="geometry">
            <mxRectangle width="60" height="46" as="alternateBounds" />
          </mxGeometry>
        </mxCell>
        <mxCell id="OWrJz08ZFz05rzJFqo_H-99" value="1" style="connectable=0;recursiveResize=0;strokeColor=inherit;fillColor=none;align=center;whiteSpace=wrap;html=1;" parent="OWrJz08ZFz05rzJFqo_H-94" vertex="1">
          <mxGeometry x="240" width="60" height="46" as="geometry">
            <mxRectangle width="60" height="46" as="alternateBounds" />
          </mxGeometry>
        </mxCell>
        <mxCell id="OWrJz08ZFz05rzJFqo_H-100" value="0" style="connectable=0;recursiveResize=0;strokeColor=inherit;fillColor=none;align=center;whiteSpace=wrap;html=1;" parent="OWrJz08ZFz05rzJFqo_H-94" vertex="1">
          <mxGeometry x="300" width="60" height="46" as="geometry">
            <mxRectangle width="60" height="46" as="alternateBounds" />
          </mxGeometry>
        </mxCell>
      </root>
    </mxGraphModel>
  </diagram>
</mxfile>
